<svg width="29" height="29" viewBox="0 0 29 29" fill="none" xmlns="http://www.w3.org/2000/svg">
<path d="M14.5683 11.7553C13.0889 11.7553 11.8869 12.9529 11.8869 14.4271C11.8869 15.9014 13.091 17.099 14.5683 17.099C16.0456 17.099 17.2497 15.9014 17.2497 14.4271C17.2497 12.9529 16.0478 11.7553 14.5683 11.7553Z" fill="white"/>
<path d="M17.8923 7.55184H11.1056C9.17138 7.55184 7.59799 9.11964 7.59799 11.047V17.8096C7.59799 19.7369 9.17138 21.3047 11.1056 21.3047H17.8923C19.8265 21.3047 21.3999 19.7369 21.3999 17.8096V11.047C21.3999 9.11964 19.8265 7.55184 17.8923 7.55184ZM14.5683 18.5988C12.2605 18.5988 10.3819 16.7268 10.3819 14.4272C10.3819 12.1276 12.2605 10.2556 14.5683 10.2556C16.8761 10.2556 18.7548 12.1276 18.7548 14.4272C18.7548 16.7268 16.8761 18.5988 14.5683 18.5988ZM19.0003 10.9682C18.4495 10.9682 18.0033 10.5236 18.0033 9.9748C18.0033 9.42597 18.4495 8.98137 19.0003 8.98137C19.5511 8.98137 19.9973 9.42597 19.9973 9.9748C19.9973 10.5236 19.5511 10.9682 19.0003 10.9682Z" fill="white"/>
<path d="M14.5 0C6.49212 0 0 6.46905 0 14.4485C0 22.4279 6.49212 28.8969 14.5 28.8969C22.5079 28.8969 29 22.4279 29 14.4485C29 6.46905 22.5079 0 14.5 0ZM22.9989 17.8096C22.9989 20.6154 20.7082 22.898 17.8923 22.898H11.1056C8.28968 22.898 5.99897 20.6154 5.99897 17.8096V11.047C5.99897 8.24107 8.28968 5.9585 11.1056 5.9585H17.8923C20.7082 5.9585 22.9989 8.24107 22.9989 11.047V17.8096Z" fill="white"/>
</svg>
