<svg width="29" height="29" viewBox="0 0 29 29" fill="none" xmlns="http://www.w3.org/2000/svg">
<path d="M14.5 0C6.49212 0 0 6.46905 0 14.4485C0 22.4279 6.49212 28.8969 14.5 28.8969C22.5079 28.8969 29 22.4279 29 14.4485C29 6.46905 22.5079 0 14.5 0ZM11.2273 20.7452H8.41991V11.7575H11.2273V20.7452ZM9.82251 10.53C8.9216 10.53 8.19361 9.8025 8.19361 8.90904C8.19361 8.01558 8.9216 7.29018 9.82251 7.29018C10.7234 7.29018 11.4493 8.01558 11.4493 8.90904C11.4493 9.8025 10.7213 10.53 9.82251 10.53ZM21.7308 20.7452H18.9277V16.3758C18.9277 15.3334 18.9064 13.9911 17.4696 13.9911C16.0328 13.9911 15.7873 15.1271 15.7873 16.2992V20.7452H12.9842V11.7575H15.6742V12.987H15.7105C16.0862 12.2808 16.9999 11.5341 18.3662 11.5341C21.2056 11.5341 21.7287 13.3955 21.7287 15.8163V20.7452H21.7308Z" fill="white"/>
</svg>
