<svg width="29" height="29" viewBox="0 0 29 29" fill="none" xmlns="http://www.w3.org/2000/svg">
<path d="M16.859 14.3101L13.0376 12.2382C12.8818 12.1488 12.3438 12.2616 12.3438 12.4424V16.4821C12.3438 16.6587 12.8754 16.7714 13.0312 16.6884L17.0234 14.7207C17.1857 14.6335 17.017 14.4016 16.8569 14.3123L16.859 14.3101Z" fill="white"/>
<path d="M14.5 0C6.49212 0 0 6.46905 0 14.4485C0 22.4279 6.49212 28.8969 14.5 28.8969C22.5079 28.8969 29 22.4279 29 14.4485C29 6.46905 22.5079 0 14.5 0ZM22.2624 16.4758C22.2624 18.3924 20.7039 19.9454 18.7804 19.9454H9.87802C7.95451 19.9454 6.39605 18.3924 6.39605 16.4758V12.3467C6.39605 10.43 7.95451 8.87713 9.87802 8.87713H18.7804C20.7039 8.87713 22.2624 10.43 22.2624 12.3467V16.4758Z" fill="white"/>
</svg>
